mtllib materials.mtl
v -0.2336859 0.02780181 -0.1319169
v -0.2212141 0.00257799 -0.1527307
v 0.2001573 0.01420003 0.08567584
v 0.1876854 0.03942391 0.1064895
v -0.2252994 -0.03103489 -0.1438715
v 0.196072 -0.01941288 0.09453511
v -0.2418566 -0.03942391 -0.1141985
v 0.1795148 -0.02780193 0.1242081
v -0.2543284 -0.01420006 -0.0933848
v 0.167043 -0.00257808 0.1450218
v -0.2502431 0.01941279 -0.102244
v 0.1711282 0.03103483 0.1361626
v 0.2210068 0.02244523 0.1296101
v 0.2127283 0.0182507 0.1444467
v 0.2252001 -0.006973147 0.1236329
v 0.2272427 0.009833306 0.1192033
v 0.2169214 -0.01116768 0.1384693
v 0.2106855 0.00144425 0.1488762
v 0.2543283 0.00546658 0.1527307
vn 0.3405136 0.6928516 -0.6356157
vn 0.4788547 -0.2777022 -0.8328143
vn 0.1383415 -0.9705537 -0.1971984
vn -0.3405136 -0.6928515 0.6356157
vn -0.4788548 0.2777023 0.8328143
vn -0.1383414 0.9705537 0.1971985
vn 0.2046856 0.9060523 0.3703688
vn -0.8700997 -0.02399855 -0.4922914
vn 0.7357077 -0.2548156 -0.6275375
vn 0.414428 -0.9097123 -0.0259451
vn -0.009023922 -0.6390807 0.7690868
vn 0.626251 0.6565545 -0.4204116
vn -0.1090867 0.2657177 0.9578592
vn 0.7357077 -0.2548156 -0.6275375
vn 0.626251 0.6565545 -0.4204116
vn 0.414428 -0.9097123 -0.0259451
vn -0.009023922 -0.6390807 0.7690868
vn -0.1090867 0.2657177 0.9578592
vn 0.2046856 0.9060523 0.3703688
vt -0.05653695 0.1479754
vt -0.05318002 0.1489659
vt -0.06688432 0.1954143
vt -0.07024126 0.1944238
vt 0.07599227 0.1464107
vt 0.07850061 0.1439697
vt 0.112275 0.1786765
vt 0.1097666 0.1811174
vt 0.1010714 0.1268763
vt 0.1032386 0.124128
vt 0.1412662 0.154114
vt 0.1390991 0.1568624
vt 0.05318001 0.1489659
vt 0.05653694 0.1479754
vt 0.07024124 0.1944239
vt 0.0668843 0.1954143
vt -0.07850061 0.1439697
vt -0.07599227 0.1464107
vt -0.1097666 0.1811174
vt -0.112275 0.1786765
vt -0.1032386 0.124128
vt -0.1010714 0.1268763
vt -0.1390991 0.1568623
vt -0.1412662 0.154114
vt -0.131806 0.1239019
vt -0.1359094 0.1254812
vt -0.1368215 0.1239877
vt -0.1336302 0.1209149
vt -0.02416943 0.04256991
vt -0.02178941 0.04000369
vt -0.01837699 0.04078173
vt -0.01734458 0.044126
vt -0.0197246 0.04669223
vt -0.02313703 0.04591418
vt 0.1309015 0.1451025
vt 0.1328502 0.1421952
vt 0.1359165 0.1452113
vt 0.1349421 0.1466649
vt 0.1323618 0.1605179
vt 0.1346225 0.1578459
vt 0.1372304 0.1613089
vt 0.1361 0.1626449
vt 0.05180637 0.2021181
vt 0.05523058 0.2013936
vt 0.05510197 0.2057914
vt 0.05338987 0.2061537
vt -0.1026623 0.1427069
vt -0.09968457 0.1445462
vt -0.1025374 0.1478064
vt -0.1040263 0.1468867
vt -0.08754866 0.1893917
vt -0.08554973 0.1854723
vt -0.08416089 0.186537
vt 0.1359165 0.1452113
vt 0.1389827 0.1482274
vt 0.1349421 0.1466649
vt -0.1025374 0.1478064
vt -0.1053903 0.1510666
vt -0.1040263 0.1468867
vt 0.1372304 0.1613089
vt 0.1398383 0.1647719
vt 0.1361 0.1626449
vt 0.05510197 0.2057914
vt 0.05497336 0.2101893
vt 0.05338987 0.2061537
vt -0.08554973 0.1854723
vt -0.08355083 0.1815529
vt -0.08077311 0.1836823
vt -0.08416089 0.186537
vt -0.1359094 0.1254812
vt -0.1400127 0.1270605
vt -0.1368215 0.1239877
o group1691618060
g mesh1691618060
usemtl mat10
f 4/4/1 3/3/1 2/2/1 1/1/1
f 3/8/2 6/7/2 5/6/2 2/5/2
f 6/12/3 8/11/3 7/10/3 5/9/3
f 8/16/4 10/15/4 9/14/4 7/13/4
f 10/20/5 12/19/5 11/18/5 9/17/5
f 12/24/6 4/23/6 1/22/6 11/21/6
f 1/34/8 2/33/8 5/32/8 7/31/8 9/30/8 11/29/8
usemtl mat20
f 12/28/7 14/27/7 13/26/7 4/25/7
f 16/38/9 15/37/9 6/36/9 3/35/9
f 15/42/10 17/41/10 8/40/10 6/39/10
f 17/46/11 18/45/11 10/44/11 8/43/11
f 13/50/12 16/49/12 3/48/12 4/47/12
f 14/69/18 12/68/18 10/67/18 18/66/18
usemtl mat23
f 14/53/13 18/52/13 19/51/13
f 16/56/14 19/55/14 15/54/14
f 13/59/15 19/58/15 16/57/15
f 15/62/16 19/61/16 17/60/16
f 17/65/17 19/64/17 18/63/17
f 14/72/19 19/71/19 13/70/19
