mtllib materials.mtl
v 3.72529E-09 0.02499986 -0.2556288
v 0.0125 0.02165055 -0.2556288
v 0.0125 0.02165067 0.2643714
v 3.72529E-09 0.02499998 0.2643714
v 0.02165064 0.01249993 -0.2556287
v 0.02165064 0.01250005 0.2643714
v 0.025 -1.192093E-07 -0.2556287
v 0.025 0 0.2643714
v 0.02165064 -0.01250017 -0.2556287
v 0.02165064 -0.01250005 0.2643714
v 0.01250001 -0.02165079 -0.2556287
v 0.01250001 -0.02165067 0.2643714
v 0 -0.0250001 -0.2556287
v 0 -0.02499998 0.2643714
v -0.0125 -0.02165079 -0.2556287
v -0.0125 -0.02165067 0.2643714
v -0.02165063 -0.01250017 -0.2556287
v -0.02165063 -0.01250005 0.2643714
v -0.02499999 -1.192093E-07 -0.2556287
v -0.02499999 0 0.2643714
v -0.02165063 0.01249993 -0.2556287
v -0.02165063 0.01250005 0.2643714
v -0.01249999 0.02165055 -0.2556288
v -0.01249999 0.02165067 0.2643714
v -0.01008308 0.01008284 -0.3056288
v 0.01250001 0.02165067 0.2743714
v 7.450581E-09 0.02499998 0.2743714
v 0.02165065 0.01250005 0.2743714
v 0.025 0 0.2743714
v 0.02165065 -0.01250005 0.2743714
v 0.01250001 -0.02165067 0.2743714
v 3.72529E-09 -0.02499998 0.2743714
v -0.0125 -0.02165067 0.2743714
v -0.02165063 -0.01250005 0.2743714
v -0.02499999 0 0.2743714
v -0.02165063 0.01250005 0.2743714
v -0.01249999 0.02165067 0.2743714
v 0.0125 0.02165055 0.2943713
v 0 0.02499986 0.2943713
v 0.02165064 0.01249993 0.2943713
v 0.02499999 0 0.2943713
v 0.02165064 -0.01250005 0.2943713
v 0.0125 -0.02165067 0.2943713
v -3.72529E-09 -0.02499998 0.2943713
v -0.01250001 -0.02165067 0.2943713
v -0.02165063 -0.01250005 0.2943713
v -0.025 0 0.2943713
v -0.02165063 0.01249993 0.2943713
v -0.0125 0.02165055 0.2943713
v 0.01125011 0.01948571 0.3343713
v 1.117587E-07 0.02250004 0.3343713
v 0.01948569 0.01125002 0.3343713
v 0.02250011 1.192093E-07 0.3343714
v 0.01948569 -0.01125002 0.3343713
v 0.01125012 -0.01948547 0.3343713
v 1.080334E-07 -0.02249992 0.3343713
v -0.0112499 -0.01948547 0.3343713
v -0.01948546 -0.01125002 0.3343713
v -0.02249989 1.192093E-07 0.3343714
v -0.01948546 0.01125002 0.3343713
v -0.01124989 0.01948571 0.3343713
v 0.00455638 0.01700425 0.3443714
v 0.01700429 0.004556179 0.3443714
v 0.01244804 -0.01244795 0.3443714
v -0.004556123 -0.01700413 0.3443714
v -0.01700403 -0.004556298 0.3443714
v -0.01244777 0.01244795 0.3443714
v -0.01377364 -0.0036906 -0.3056288
v -0.003690843 -0.01377332 -0.3056288
v 0.01008253 -0.01008284 -0.3056288
v 0.01377309 0.0036906 -0.3056288
v 0.003690287 0.01377332 -0.3056288
v -0.0001098514 -8.499622E-05 -0.3443714
vn 0.2588169 0.9659264 -2.06813E-07
vn 0.7071065 0.7071071 -1.04208E-07
vn 0.965926 0.2588185 -4.730595E-08
vn 0.9659259 -0.2588186 7.390156E-08
vn 0.7071066 -0.707107 2.309175E-07
vn 0.2588167 -0.9659265 2.484593E-07
vn -0.2588169 -0.9659264 2.503524E-07
vn -0.7071066 -0.7071069 2.30952E-07
vn -0.965926 -0.2588186 7.199488E-08
vn -0.965926 0.2588186 -4.745794E-08
vn -0.7071065 0.7071071 -1.049942E-07
vn -0.2588167 0.9659265 -2.116936E-07
vn -0.6936707 0.693671 -0.1940144
vn 0.2588168 0.9659265 -8.428797E-07
vn 0.7071065 0.7071071 -3.434662E-06
vn 0.9659261 0.2588183 -8.134651E-07
vn 0.9659261 -0.2588184 -1.047764E-06
vn 0.7071066 -0.7071071 -3.925026E-06
vn 0.2588167 -0.9659265 -1.512176E-06
vn -0.2588169 -0.9659265 -1.463967E-06
vn -0.7071068 -0.7071069 -3.442015E-06
vn -0.965926 -0.2588186 -7.7462E-07
vn -0.965926 0.2588186 -5.437981E-07
vn -0.7071066 0.7071071 -2.91705E-06
vn -0.2588167 0.9659265 -4.476386E-07
vn 0.2588147 0.9659271 5.830211E-06
vn 0.7071062 0.7071074 4.463729E-06
vn 0.9659259 0.2588187 1.108813E-06
vn 0.9659263 -0.2588176 3.314109E-07
vn 0.7071065 -0.7071072 2.845796E-07
vn 0.2588146 -0.9659271 1.231968E-07
vn -0.2588145 -0.9659271 -7.504944E-08
vn -0.7071066 -0.7071069 -2.174038E-07
vn -0.9659261 -0.2588183 -3.290622E-07
vn -0.9659258 0.2588194 4.470135E-07
vn -0.7071063 0.7071073 3.992537E-06
vn -0.2588147 0.9659271 5.635401E-06
vn 0.2583427 0.9641724 0.06025509
vn 0.705824 0.70582 0.06025596
vn 0.9641703 0.2583499 0.06025729
vn 0.9641713 -0.2583463 0.06025837
vn 0.7058192 -0.7058244 0.06026012
vn 0.258347 -0.9641708 0.06026223
vn -0.2583471 -0.9641707 0.06026367
vn -0.7058192 -0.705824 0.06026401
vn -0.9641707 -0.2583469 0.06026368
vn -0.9641699 0.2583505 0.06026259
vn -0.7058239 0.7058197 0.06025982
vn -0.2583426 0.9641724 0.06025653
vn 0.2392191 0.8928053 0.3816711
vn 0.5932027 0.593195 0.5442705
vn 0.8928021 0.2392273 0.3816737
vn 0.8103275 -0.217126 0.5442663
vn 0.653574 -0.6535838 0.3816664
vn 0.2171261 -0.8103299 0.5442625
vn -0.2392281 -0.8928047 0.3816672
vn -0.5931976 -0.5932033 0.5442671
vn -0.892804 -0.2392234 0.3816715
vn -0.8103243 0.2171261 0.544271
vn -0.6535808 0.653572 0.3816749
vn -0.2171248 0.8103254 0.5442697
vn 2.627549E-07 -1.573741E-07 1
vn -0.9401053 0.2518995 -0.2296712
vn -0.947572 -0.2539007 -0.1940149
vn -0.688203 -0.6882048 -0.2296753
vn -0.2538966 -0.9475718 -0.1940212
vn 0.251895 -0.9401042 -0.2296803
vn 0.6936693 -0.6936694 -0.194025
vn 0.9401027 -0.2518989 -0.2296823
vn 0.9475703 0.2539002 -0.194024
vn 0.6882024 0.6882041 -0.2296793
vn 0.2538963 0.9475723 -0.1940194
vn -0.2518961 0.9401056 -0.2296733
vn -0.920882 0.2467483 -0.3018141
vn -0.6743984 -0.6744032 -0.3006115
vn 0.2466891 -0.920677 -0.3024871
vn 0.9197297 -0.2464384 -0.3055576
vn 0.6730151 0.6730173 -0.3067547
vn -0.2464927 0.9199377 -0.3048869
vt 0.05705702 -0.01903637
vt 0.05654889 -0.0178462
vt 0.008725132 -0.03826407
vt 0.00923326 -0.03945423
vt 0.1145316 -0.05005996
vt 0.1136119 -0.04914953
vt 0.07702847 -0.0861043
vt 0.07794815 -0.08701473
vt 0.1134976 0.12436
vt 0.1124015 0.123672
vt 0.1400439 0.07962777
vt 0.14114 0.08031569
vt 0.03084601 0.1678001
vt 0.03028462 0.1666342
vt 0.07713701 0.1440763
vt 0.07769839 0.1452423
vt -0.003403859 0.1309069
vt -0.00381682 0.1296805
vt 0.04546446 0.1130866
vt 0.04587742 0.1143131
vt -0.02771604 0.06015979
vt -0.0281172 0.05892945
vt 0.02132118 0.04280967
vt 0.02172234 0.04404001
vt -0.05654889 -0.01784622
vt -0.05705702 -0.01903638
vt -0.009233255 -0.03945424
vt -0.008725128 -0.03826408
vt -0.1136119 -0.04914955
vt -0.1145316 -0.05005997
vt -0.07794815 -0.08701476
vt -0.07702848 -0.08610433
vt -0.1124015 0.123672
vt -0.1134976 0.12436
vt -0.14114 0.08031567
vt -0.1400439 0.07962775
vt -0.03028463 0.1666342
vt -0.03084601 0.1678002
vt -0.07769839 0.1452423
vt -0.07713701 0.1440763
vt 0.003816846 0.1296805
vt 0.003403886 0.1309069
vt -0.0458774 0.1143131
vt -0.04546443 0.1130866
vt 0.02811721 0.05892944
vt 0.02771605 0.06015978
vt -0.02172234 0.04404
vt -0.02132117 0.04280966
vt -0.02548136 0.1221573
vt -0.02500596 0.1209537
vt -0.0205032 0.1234279
vt 0.009233139 -0.03945427
vt 0.008725012 -0.03826411
vt 0.007805324 -0.03865676
vt 0.008313451 -0.03984692
vt 0.0779474 -0.08701542
vt 0.07702773 -0.08610498
vt 0.0763242 -0.08681565
vt 0.07724387 -0.08772608
vt 0.1411399 0.0803159
vt 0.1400438 0.07962797
vt 0.1405754 0.07878096
vt 0.1416715 0.07946889
vt 0.07769822 0.1452424
vt 0.07713683 0.1440764
vt 0.07803784 0.1436426
vt 0.07859922 0.1448086
vt 0.04587682 0.1143133
vt 0.04546387 0.1130868
vt 0.04641158 0.1127677
vt 0.04682454 0.1139942
vt 0.02172209 0.04404009
vt 0.02132093 0.04280975
vt 0.02227167 0.04249975
vt 0.02267283 0.0437301
vt -0.008725436 -0.03826397
vt -0.009233566 -0.03945413
vt -0.008313878 -0.03984679
vt -0.007805751 -0.03865663
vt -0.07702929 -0.08610359
vt -0.07794897 -0.08701401
vt -0.07724544 -0.08772469
vt -0.07632577 -0.08681426
vt -0.140044 0.0796276
vt -0.1411401 0.08031552
vt -0.1416717 0.07946852
vt -0.1405756 0.07878059
vt -0.07713708 0.1440763
vt -0.07769847 0.1452423
vt -0.07859947 0.1448085
vt -0.07803808 0.1436425
vt -0.04546485 0.1130865
vt -0.04587781 0.1143129
vt -0.04682553 0.1139938
vt -0.04641256 0.1127674
vt -0.02132121 0.04280964
vt -0.02172237 0.04403999
vt -0.02267311 0.04372999
vt -0.02227195 0.04249965
vt 0.008314498 -0.03984611
vt 0.007806366 -0.03865595
vt 0.005966998 -0.03944125
vt 0.006475129 -0.04063141
vt 0.07724551 -0.08772449
vt 0.07632583 -0.08681406
vt 0.07491878 -0.0882354
vt 0.07583846 -0.08914582
vt 0.1416717 0.07946847
vt 0.1405756 0.07878055
vt 0.1416387 0.07708653
vt 0.1427348 0.07777445
vt 0.07859952 0.1448085
vt 0.07803813 0.1436425
vt 0.07984014 0.1427749
vt 0.08040152 0.1439409
vt 0.04682513 0.1139939
vt 0.04641217 0.1127675
vt 0.04830759 0.1121293
vt 0.04872056 0.1133557
vt 0.02267296 0.04372968
vt 0.0222718 0.04249933
vt 0.02417327 0.04187934
vt 0.02457443 0.04310969
vt -0.007805317 -0.03865636
vt -0.008313443 -0.03984652
vt -0.006474073 -0.04063182
vt -0.005965946 -0.03944166
vt -0.07632504 -0.08681491
vt -0.07724471 -0.08772533
vt -0.07583767 -0.08914667
vt -0.07491799 -0.08823624
vt -0.1405755 0.07878077
vt -0.1416716 0.07946869
vt -0.1427347 0.07777469
vt -0.1416386 0.07708676
vt -0.07803784 0.1436426
vt -0.07859923 0.1448086
vt -0.08040123 0.1439409
vt -0.07983986 0.142775
vt -0.04641154 0.1127677
vt -0.0468245 0.1139941
vt -0.04871993 0.1133559
vt -0.04830697 0.1121295
vt -0.02227094 0.0424996
vt -0.02267211 0.04372995
vt -0.02457358 0.04310995
vt -0.02417241 0.04187961
vt 0.01729542 -0.03596811
vt 0.01673581 -0.03480127
vt 0.01315056 -0.03659249
vt 0.01365421 -0.03764265
vt 0.08766147 -0.07694229
vt 0.08667105 -0.07610936
vt 0.08414136 -0.07921793
vt 0.08503275 -0.07996757
vt 0.1465762 0.0698981
vt 0.145433 0.06929162
vt 0.1473682 0.06578199
vt 0.1483971 0.06632782
vt 0.08984692 0.138419
vt 0.08922453 0.1372844
vt 0.09276905 0.1354139
vt 0.09332921 0.136435
vt 0.05711263 0.1102013
vt 0.05667841 0.1089822
vt 0.06047509 0.1076986
vt 0.06086589 0.1087957
vt 0.03320418 0.0405343
vt 0.03281746 0.03929933
vt 0.03666099 0.03816361
vt 0.03700902 0.03927508
vt 0.004986264 -0.04307076
vt 0.004534295 -0.04428336
vt 0.008311833 -0.04562228
vt 0.008718607 -0.04453094
vt -0.06026169 -0.09981438
vt -0.06108672 -0.1008114
vt -0.05795817 -0.1033163
vt -0.05721565 -0.102419
vt -0.1351972 0.08824717
vt -0.1362217 0.08903774
vt -0.1386186 0.08582563
vt -0.1376965 0.08511411
vt -0.0691845 0.1480823
vt -0.06967811 0.1492786
vt -0.07335776 0.1476903
vt -0.07291351 0.1466136
vt -0.03938261 0.1151687
vt -0.03977256 0.1164026
vt -0.04357409 0.1151334
vt -0.04322314 0.1140229
vt -0.01523454 0.04478967
vt -0.01564869 0.0460157
vt -0.01942451 0.04467196
vt -0.01905178 0.04356853
vt 0.06424922 -0.00230617
vt 0.06356064 -0.001366841
vt 0.06303237 -0.002476152
vt 0.1290407 0.008373208
vt 0.1279605 0.008808723
vt 0.1272385 0.007814549
vt 0.1288712 0.007156279
vt 0.1535766 0.05247534
vt 0.1524609 0.05214109
vt 0.1533293 0.05127182
vt 0.1397187 0.09252261
vt 0.1388879 0.09170629
vt 0.1395109 0.09064728
vt 0.1407666 0.09188111
vt 0.1009814 0.089931
vt 0.1005137 0.08886434
vt 0.1017384 0.08896323
vt 0.1050109 0.03214539
vt 0.1048245 0.03099572
vt 0.1059535 0.0305109
vt 0.1062352 0.0322486
vt 0.07238759 -0.04280979
vt 0.07232226 -0.04397264
vt 0.07343513 -0.04345189
vt 0.1319346 -0.04309648
vt 0.132654 -0.04401245
vt 0.1337754 -0.04351044
vt 0.1326881 -0.04212597
vt 0.03049982 0.1609955
vt 0.03092525 0.1620797
vt 0.02970538 0.1619328
vt 0.04412824 0.157638
vt 0.04436746 0.1587779
vt 0.04326203 0.1593142
vt 0.04290044 0.1575914
vt 0.009587625 0.1255558
vt 0.009376861 0.1267013
vt 0.008418198 0.1259328
vt 0.0552053 0.07201253
vt 0.05478691 0.07309948
vt 0.05356746 0.07294925
vt 0.05419983 0.07130636
vt 0.1500157 0.08054839
vt 0.1483456 0.08110507
vt 0.1470285 0.07993709
vt 0.1473814 0.07821244
vt 0.1490514 0.07765575
vt 0.1503686 0.07882372
vt -0.06914964 0.1532091
vt -0.06838827 0.1521627
vt -0.06419538 0.1551319
vt -0.06503431 0.1562849
vt -0.1311283 0.1092449
vt -0.129926 0.1087661
vt -0.1286415 0.1137407
vt -0.1366958 0.001374255
vt -0.1355852 0.002038448
vt -0.1381654 0.006481332
vt -0.1393891 0.00574948
vt -0.08528741 0.004036959
vt -0.0846291 0.005151096
vt -0.08934636 0.00718681
vt -0.05930657 0.07196004
vt -0.05886356 0.07317594
vt -0.06366796 0.07499652
vt -0.0641561 0.07365675
vt -0.03271765 0.1345938
vt -0.03238541 0.1358445
vt -0.03747756 0.1365277
vt -0.01765773 0.1705241
vt -0.01739228 0.1717907
vt -0.02240686 0.172909
vt -0.02269936 0.1715134
vt 0.05502872 0.1551035
vt 0.0557066 0.1562059
vt 0.05102602 0.1583246
vt 0.04706841 -0.1063591
vt 0.04743355 -0.1076007
vt 0.05238076 -0.1062144
vt 0.05197842 -0.1048464
vt 0.02077853 -0.03464726
vt 0.02108858 -0.03590365
vt 0.02588197 -0.03405432
vt -0.006768121 0.04851907
vt -0.006430397 0.04726983
vt -0.001453883 0.04854689
vt -0.001826005 0.0499234
vt -0.0751119 0.1507304
vt -0.07422154 0.1496166
vt -0.07148559 0.1527022
vt -0.1425644 0.01898039
vt -0.1413077 0.01965414
vt -0.143857 0.02289654
vt -0.0736113 0.07785191
vt -0.07311334 0.07918806
vt -0.07717556 0.07992747
vt -0.04038506 0.168863
vt -0.04022375 0.1702797
vt -0.04434839 0.1700207
vt 0.01442023 -0.1147561
vt 0.01447891 -0.1161809
vt 0.01851669 -0.1153027
vt -0.01368695 0.0467497
vt -0.01334354 0.04536574
vt -0.009563965 0.04702503
o group162456899
g mesh162456899
usemtl mat12
f 4/4/1 3/3/1 2/2/1 1/1/1
f 6/12/3 8/11/3 7/10/3 5/9/3
f 10/20/5 12/19/5 11/18/5 9/17/5
f 14/28/7 16/27/7 15/26/7 13/25/7
f 18/36/9 20/35/9 19/34/9 17/33/9
f 22/44/11 24/43/11 23/42/11 21/41/11
usemtl mat13
f 3/8/2 6/7/2 5/6/2 2/5/2
f 8/16/4 10/15/4 9/14/4 7/13/4
f 12/24/6 14/23/6 13/22/6 11/21/6
f 16/32/8 18/31/8 17/30/8 15/29/8
f 20/40/10 22/39/10 21/38/10 19/37/10
f 24/48/12 4/47/12 1/46/12 23/45/12
usemtl mat18
f 25/51/13 21/50/13 23/49/13
f 25/247/63 68/246/63 19/245/63 21/244/63
f 68/250/64 17/249/64 19/248/64
f 68/254/65 69/253/65 15/252/65 17/251/65
f 69/257/66 13/256/66 15/255/66
f 69/261/67 70/260/67 11/259/67 13/258/67
f 70/264/68 9/263/68 11/262/68
f 70/268/69 71/267/69 7/266/69 9/265/69
f 71/271/70 5/270/70 7/269/70
f 71/275/71 72/274/71 2/273/71 5/272/71
f 72/278/72 1/277/72 2/276/72
f 72/282/73 25/281/73 23/280/73 1/279/73
usemtl mat16
f 27/55/14 26/54/14 3/53/14 4/52/14
f 26/59/15 28/58/15 6/57/15 3/56/15
f 28/63/16 29/62/16 8/61/16 6/60/16
f 29/67/17 30/66/17 10/65/17 8/64/17
f 30/71/18 31/70/18 12/69/18 10/68/18
f 31/75/19 32/74/19 14/73/19 12/72/19
f 32/79/20 33/78/20 16/77/20 14/76/20
f 33/83/21 34/82/21 18/81/21 16/80/21
f 34/87/22 35/86/22 20/85/22 18/84/22
f 35/91/23 36/90/23 22/89/23 20/88/23
f 36/95/24 37/94/24 24/93/24 22/92/24
f 37/99/25 27/98/25 4/97/25 24/96/25
usemtl mat15
f 39/103/26 38/102/26 26/101/26 27/100/26
f 38/107/27 40/106/27 28/105/27 26/104/27
f 40/111/28 41/110/28 29/109/28 28/108/28
f 41/115/29 42/114/29 30/113/29 29/112/29
f 42/119/30 43/118/30 31/117/30 30/116/30
f 43/123/31 44/122/31 32/121/31 31/120/31
f 44/127/32 45/126/32 33/125/32 32/124/32
f 45/131/33 46/130/33 34/129/33 33/128/33
f 46/135/34 47/134/34 35/133/34 34/132/34
f 47/139/35 48/138/35 36/137/35 35/136/35
f 48/143/36 49/142/36 37/141/36 36/140/36
f 49/147/37 39/146/37 27/145/37 37/144/37
usemtl mat6
f 51/151/38 50/150/38 38/149/38 39/148/38
f 50/155/39 52/154/39 40/153/39 38/152/39
f 52/159/40 53/158/40 41/157/40 40/156/40
f 53/163/41 54/162/41 42/161/41 41/160/41
f 54/167/42 55/166/42 43/165/42 42/164/42
f 55/171/43 56/170/43 44/169/43 43/168/43
f 56/175/44 57/174/44 45/173/44 44/172/44
f 57/179/45 58/178/45 46/177/45 45/176/45
f 58/183/46 59/182/46 47/181/46 46/180/46
f 59/187/47 60/186/47 48/185/47 47/184/47
f 60/191/48 61/190/48 49/189/48 48/188/48
f 61/195/49 51/194/49 39/193/49 49/192/49
f 62/198/50 50/197/50 51/196/50
f 62/202/51 63/201/51 52/200/51 50/199/51
f 63/205/52 53/204/52 52/203/52
f 63/209/53 64/208/53 54/207/53 53/206/53
f 64/212/54 55/211/54 54/210/54
f 64/216/55 65/215/55 56/214/55 55/213/55
f 65/219/56 57/218/56 56/217/56
f 65/223/57 66/222/57 58/221/57 57/220/57
f 66/226/58 59/225/58 58/224/58
f 66/230/59 67/229/59 60/228/59 59/227/59
f 67/233/60 61/232/60 60/231/60
f 67/237/61 62/236/61 51/235/61 61/234/61
f 67/243/62 66/242/62 65/241/62 64/240/62 63/239/62 62/238/62
usemtl mat23
f 73/285/74 68/284/74 25/283/74
f 73/288/75 69/287/75 68/286/75
f 73/291/76 70/290/76 69/289/76
f 73/294/77 71/293/77 70/292/77
f 73/297/78 72/296/78 71/295/78
f 73/300/79 25/299/79 72/298/79
