# Blender v2.74 (sub 0) OBJ File: ''
# www.blender.org
mtllib bathtub-tutorial-for-component-modes.mtl
o Cone
v -0.013400 4.505895 0.894981
v -0.013400 3.388324 0.862814
v 0.236600 3.419999 0.803775
v 0.419600 3.506515 0.642517
v 0.486600 3.624705 0.422219
v 0.419600 3.742895 0.201922
v 0.236600 3.829411 0.040664
v -0.013400 3.861086 -0.018376
v -0.263400 3.829411 0.040664
v -0.446400 3.742895 0.201922
v -0.513400 3.624705 0.422219
v -0.446400 3.506515 0.642517
v -0.263400 3.419999 0.803775
v -0.013400 3.624705 0.422219
vt 0.000000 1.000000
vt 0.000000 0.000000
vt 0.083333 0.000000
vt 0.083333 1.000000
vt 0.166667 0.000000
vt 0.166667 1.000000
vt 0.250000 0.000000
vt 0.250000 1.000000
vt 0.333333 0.000000
vt 0.333333 1.000000
vt 0.416667 0.000000
vt 0.416667 1.000000
vt 0.500000 0.000000
vt 0.500000 1.000000
vt 0.583333 0.000000
vt 0.583333 1.000000
vt 0.666667 0.000000
vt 0.666667 1.000000
vt 0.750000 0.000000
vt 0.750000 1.000000
vt 0.833333 0.000000
vt 0.833333 1.000000
vt 0.916667 0.000000
vt 0.916667 1.000000
vt 1.000000 0.000000
vt 1.000000 1.000000
vn 0.040700 0.798400 0.600800
vn 0.000000 -0.028800 0.999600
vn 0.447200 0.027900 0.894000
vn 0.774600 0.182600 0.605500
vn 0.894400 0.394100 0.211400
vn 0.774600 0.605500 -0.182700
vn 0.447200 0.760300 -0.471100
vn -0.000000 0.816900 -0.576700
vn -0.447200 0.760300 -0.471100
vn -0.774600 0.605500 -0.182700
vn -0.894400 0.394100 0.211400
vn -0.774600 0.182600 0.605500
vn -0.447200 0.027900 0.894000
vn -0.000000 -0.881200 -0.472800
usemtl 605858
s 1
f 1/1/1 2/2/2 3/3/3
f 1/4/1 3/3/3 4/5/4
f 1/6/1 4/5/4 5/7/5
f 1/8/1 5/7/5 6/9/6
f 1/10/1 6/9/6 7/11/7
f 1/12/1 7/11/7 8/13/8
f 1/14/1 8/13/8 9/15/9
f 1/16/1 9/15/9 10/17/10
f 1/18/1 10/17/10 11/19/11
f 1/20/1 11/19/11 12/21/12
f 1/22/1 12/21/12 13/23/13
f 1/24/1 13/23/13 2/25/2
f 3/4/14 2/1/14 14/2/14
f 4/6/14 3/4/14 14/2/14
f 5/8/14 4/6/14 14/2/14
f 6/10/14 5/8/14 14/2/14
f 7/12/14 6/10/14 14/2/14
f 8/14/14 7/12/14 14/2/14
f 9/16/14 8/14/14 14/2/14
f 10/18/14 9/16/14 14/2/14
f 11/20/14 10/18/14 14/2/14
f 12/22/14 11/20/14 14/2/14
f 13/24/14 12/22/14 14/2/14
f 2/26/14 13/24/14 14/2/14
o Cylinder1
v -0.010900 4.514850 1.055850
v 0.017684 4.514850 1.051813
v 0.044325 4.514850 1.039937
v 0.067210 4.514850 1.021080
v 0.084750 4.514850 0.996475
v 0.095795 4.514850 0.967833
v 0.099550 4.514850 0.937100
v 0.095795 4.514850 0.906367
v 0.084750 4.514850 0.877725
v 0.067210 4.514850 0.853120
v 0.044325 4.514850 0.834262
v 0.017684 4.514850 0.822388
v -0.010900 4.514850 0.818350
v -0.039484 4.514850 0.822388
v -0.066125 4.514850 0.834262
v -0.089010 4.514850 0.853120
v -0.106550 4.514850 0.877725
v -0.117595 4.514850 0.906367
v -0.121350 4.514850 0.937100
v -0.117595 4.514850 0.967833
v -0.106550 4.514850 0.996475
v -0.089010 4.514850 1.021080
v -0.066125 4.514850 1.039937
v -0.039484 4.514850 1.051813
v -0.010900 0.053350 1.055850
v 0.017684 0.053350 1.051813
v 0.044325 0.053350 1.039937
v 0.067210 0.053350 1.021080
v 0.084750 0.053350 0.996475
v 0.095795 0.053350 0.967833
v 0.099550 0.053350 0.937100
v 0.095795 0.053350 0.906367
v 0.084750 0.053350 0.877725
v 0.067210 0.053350 0.853120
v 0.044325 0.053350 0.834262
v 0.017684 0.053350 0.822388
v -0.010900 0.053350 0.818350
v -0.039484 0.053350 0.822388
v -0.066125 0.053350 0.834262
v -0.089010 0.053350 0.853120
v -0.106550 0.053350 0.877725
v -0.117595 0.053350 0.906367
v -0.121350 0.053350 0.937100
v -0.117595 0.053350 0.967833
v -0.106550 0.053350 0.996475
v -0.089010 0.053350 1.021080
v -0.066125 0.053350 1.039937
v -0.039484 0.053350 1.051813
v -0.010900 4.514850 0.937100
v -0.010900 0.053350 0.937100
vt 0.000000 1.000000
vt 0.000000 0.000000
vt 0.041667 0.000000
vt 0.041667 1.000000
vt 0.083333 0.000000
vt 0.083333 1.000000
vt 0.125000 0.000000
vt 0.125000 1.000000
vt 0.166667 0.000000
vt 0.166667 1.000000
vt 0.208333 0.000000
vt 0.208333 1.000000
vt 0.250000 0.000000
vt 0.250000 1.000000
vt 0.291667 0.000000
vt 0.291667 1.000000
vt 0.333333 0.000000
vt 0.333333 1.000000
vt 0.375000 0.000000
vt 0.375000 1.000000
vt 0.416667 0.000000
vt 0.416667 1.000000
vt 0.458333 0.000000
vt 0.458333 1.000000
vt 0.500000 0.000000
vt 0.500000 1.000000
vt 0.541667 0.000000
vt 0.541667 1.000000
vt 0.583333 0.000000
vt 0.583333 1.000000
vt 0.625000 0.000000
vt 0.625000 1.000000
vt 0.666667 0.000000
vt 0.666667 1.000000
vt 0.708333 0.000000
vt 0.708333 1.000000
vt 0.750000 0.000000
vt 0.750000 1.000000
vt 0.791667 0.000000
vt 0.791667 1.000000
vt 0.833333 0.000000
vt 0.833333 1.000000
vt 0.875000 0.000000
vt 0.875000 1.000000
vt 0.916667 0.000000
vt 0.916667 1.000000
vt 0.958333 0.000000
vt 0.958333 1.000000
vt 1.000000 0.000000
vt 1.000000 1.000000
vn 0.000000 0.000000 1.000000
vn 0.276200 0.000000 0.961100
vn 0.526300 0.000000 0.850300
vn 0.731400 0.000000 0.682000
vn 0.880600 0.000000 0.473900
vn 0.970200 0.000000 0.242400
vn 1.000000 0.000000 0.000000
vn 0.970200 0.000000 -0.242400
vn 0.880600 0.000000 -0.473900
vn 0.731400 0.000000 -0.682000
vn 0.526300 0.000000 -0.850300
vn 0.276200 0.000000 -0.961100
vn 0.000000 0.000000 -1.000000
vn -0.276200 0.000000 -0.961100
vn -0.526300 0.000000 -0.850300
vn -0.731400 0.000000 -0.682000
vn -0.880600 0.000000 -0.473900
vn -0.970200 0.000000 -0.242400
vn -1.000000 0.000000 0.000000
vn -0.970200 0.000000 0.242400
vn -0.880600 0.000000 0.473900
vn -0.731400 0.000000 0.682000
vn -0.526300 0.000000 0.850300
vn -0.276200 0.000000 0.961100
vn 0.000000 1.000000 0.000000
vn 0.000000 -1.000000 0.000000
usemtl b0b0b0
s 1
f 15/27/15 39/28/15 40/29/16 16/30/16
f 16/30/16 40/29/16 41/31/17 17/32/17
f 17/32/17 41/31/17 42/33/18 18/34/18
f 18/34/18 42/33/18 43/35/19 19/36/19
f 19/36/19 43/35/19 44/37/20 20/38/20
f 20/38/20 44/37/20 45/39/21 21/40/21
f 21/40/21 45/39/21 46/41/22 22/42/22
f 22/42/22 46/41/22 47/43/23 23/44/23
f 23/44/23 47/43/23 48/45/24 24/46/24
f 24/46/24 48/45/24 49/47/25 25/48/25
f 25/48/25 49/47/25 50/49/26 26/50/26
f 26/50/26 50/49/26 51/51/27 27/52/27
f 27/52/27 51/51/27 52/53/28 28/54/28
f 28/54/28 52/53/28 53/55/29 29/56/29
f 29/56/29 53/55/29 54/57/30 30/58/30
f 30/58/30 54/57/30 55/59/31 31/60/31
f 31/60/31 55/59/31 56/61/32 32/62/32
f 32/62/32 56/61/32 57/63/33 33/64/33
f 33/64/33 57/63/33 58/65/34 34/66/34
f 34/66/34 58/65/34 59/67/35 35/68/35
f 35/68/35 59/67/35 60/69/36 36/70/36
f 36/70/36 60/69/36 61/71/37 37/72/37
f 37/72/37 61/71/37 62/73/38 38/74/38
f 38/74/38 62/73/38 39/75/15 15/76/15
f 15/28/39 16/29/39 63/27/39
f 16/29/39 17/31/39 63/27/39
f 17/31/39 18/33/39 63/27/39
f 18/33/39 19/35/39 63/27/39
f 19/35/39 20/37/39 63/27/39
f 20/37/39 21/39/39 63/27/39
f 21/39/39 22/41/39 63/27/39
f 22/41/39 23/43/39 63/27/39
f 23/43/39 24/45/39 63/27/39
f 24/45/39 25/47/39 63/27/39
f 25/47/39 26/49/39 63/27/39
f 26/49/39 27/51/39 63/27/39
f 27/51/39 28/53/39 63/27/39
f 28/53/39 29/55/39 63/27/39
f 29/55/39 30/57/39 63/27/39
f 30/57/39 31/59/39 63/27/39
f 31/59/39 32/61/39 63/27/39
f 32/61/39 33/63/39 63/27/39
f 33/63/39 34/65/39 63/27/39
f 34/65/39 35/67/39 63/27/39
f 35/67/39 36/69/39 63/27/39
f 36/69/39 37/71/39 63/27/39
f 37/71/39 38/73/39 63/27/39
f 38/73/39 15/75/39 63/27/39
f 40/30/40 39/27/40 64/28/40
f 41/32/40 40/30/40 64/28/40
f 42/34/40 41/32/40 64/28/40
f 43/36/40 42/34/40 64/28/40
f 44/38/40 43/36/40 64/28/40
f 45/40/40 44/38/40 64/28/40
f 46/42/40 45/40/40 64/28/40
f 47/44/40 46/42/40 64/28/40
f 48/46/40 47/44/40 64/28/40
f 49/48/40 48/46/40 64/28/40
f 50/50/40 49/48/40 64/28/40
f 51/52/40 50/50/40 64/28/40
f 52/54/40 51/52/40 64/28/40
f 53/56/40 52/54/40 64/28/40
f 54/58/40 53/56/40 64/28/40
f 55/60/40 54/58/40 64/28/40
f 56/62/40 55/60/40 64/28/40
f 57/64/40 56/62/40 64/28/40
f 58/66/40 57/64/40 64/28/40
f 59/68/40 58/66/40 64/28/40
f 60/70/40 59/68/40 64/28/40
f 61/72/40 60/70/40 64/28/40
f 62/74/40 61/72/40 64/28/40
f 39/76/40 62/74/40 64/28/40
o Cylinder
v 0.000000 1.068650 1.940631
v 0.278094 1.068650 1.904096
v 0.537275 1.068650 1.796641
v 0.759922 1.068650 1.626003
v 0.930560 1.068650 0.537275
v 1.038015 1.068650 0.278094
v 1.074550 1.068650 0.000000
v 1.038015 1.068650 -0.278094
v 0.930560 1.068650 -0.537275
v 0.759922 1.068650 -1.489282
v 0.537275 1.068650 -1.659921
v 0.278094 1.068650 -1.767376
v 0.000000 1.068650 -1.803911
v -0.278094 1.068650 -1.767376
v -0.537275 1.068650 -1.659921
v -0.759922 1.068650 -1.489282
v -0.918531 1.068650 -0.537275
v -1.025986 1.068650 -0.278094
v -1.062521 1.068650 0.000000
v -1.025986 1.068650 0.278094
v -0.918531 1.068650 0.537275
v -0.759922 1.068650 1.626003
v -0.537275 1.068650 1.796641
v -0.278094 1.068650 1.904096
v 0.000000 -0.096450 1.074550
v 0.278094 -0.096450 1.038015
v 0.537275 -0.096450 0.930560
v 0.759922 -0.096450 0.759922
v 0.930560 -0.096450 0.537275
v 1.038015 -0.096450 0.278094
v 1.074550 -0.096450 0.000000
v 1.038015 -0.096450 -0.278094
v 0.930560 -0.096450 -0.537275
v 0.759922 -0.096450 -0.759922
v 0.537275 -0.096450 -0.930560
v 0.278094 -0.096450 -1.038015
v 0.000000 -0.096450 -1.074550
v -0.278094 -0.096450 -1.038015
v -0.537275 -0.096450 -0.930560
v -0.759922 -0.096450 -0.759922
v -0.930560 -0.096450 -0.537275
v -1.038015 -0.096450 -0.278094
v -1.074550 -0.096450 0.000000
v -1.038015 -0.096450 0.278094
v -0.930560 -0.096450 0.537275
v -0.759922 -0.096450 0.759922
v -0.537275 -0.096450 0.930560
v -0.278094 -0.096450 1.038015
v 0.012029 1.068650 0.136720
v 0.000000 -0.096450 0.000000
vt 0.000000 1.000000
vt 0.000000 0.000000
vt 0.041667 0.000000
vt 0.041667 1.000000
vt 0.083333 0.000000
vt 0.083333 1.000000
vt 0.125000 0.000000
vt 0.125000 1.000000
vt 0.166667 0.000000
vt 0.166667 1.000000
vt 0.208333 0.000000
vt 0.208333 1.000000
vt 0.250000 0.000000
vt 0.250000 1.000000
vt 0.291667 0.000000
vt 0.291667 1.000000
vt 0.333333 0.000000
vt 0.333333 1.000000
vt 0.375000 0.000000
vt 0.375000 1.000000
vt 0.416667 0.000000
vt 0.416667 1.000000
vt 0.458333 0.000000
vt 0.458333 1.000000
vt 0.500000 0.000000
vt 0.500000 1.000000
vt 0.541667 0.000000
vt 0.541667 1.000000
vt 0.583333 0.000000
vt 0.583333 1.000000
vt 0.625000 0.000000
vt 0.625000 1.000000
vt 0.666667 0.000000
vt 0.666667 1.000000
vt 0.708333 0.000000
vt 0.708333 1.000000
vt 0.750000 0.000000
vt 0.750000 1.000000
vt 0.791667 0.000000
vt 0.791667 1.000000
vt 0.833333 0.000000
vt 0.833333 1.000000
vt 0.875000 0.000000
vt 0.875000 1.000000
vt 0.916667 0.000000
vt 0.916667 1.000000
vt 0.958333 0.000000
vt 0.958333 1.000000
vt 1.000000 0.000000
vt 1.000000 1.000000
vn -0.000000 -0.255800 0.966700
vn 0.253600 -0.250200 0.934400
vn 0.248300 -0.252000 0.935400
vn 0.492100 -0.231700 0.839100
vn 0.480900 -0.239200 0.843500
vn 0.730900 -0.109100 0.673700
vn 0.670600 -0.188600 0.717400
vn 0.865300 -0.022200 0.500800
vn 0.866400 -0.020400 0.499000
vn 0.965900 0.000000 0.258800
vn 1.000000 0.000000 0.000000
vn 0.965900 0.000000 -0.258800
vn 0.865400 -0.020700 -0.500700
vn 0.866300 -0.019100 -0.499100
vn 0.727900 -0.101000 -0.678200
vn 0.675500 -0.161400 -0.719500
vn 0.495100 -0.207000 -0.843800
vn 0.483500 -0.213600 -0.848900
vn 0.255400 -0.225800 -0.940100
vn 0.249500 -0.227400 -0.941300
vn 0.000000 -0.231700 -0.972800
vn -0.255400 -0.225800 -0.940100
vn -0.249500 -0.227400 -0.941300
vn -0.495100 -0.207000 -0.843800
vn -0.483500 -0.213600 -0.848900
vn -0.728700 -0.098800 -0.677700
vn -0.675100 -0.160700 -0.720000
vn -0.865500 -0.016500 -0.500700
vn -0.866400 -0.015300 -0.499100
vn -0.965900 0.004600 -0.258700
vn -0.965900 0.004600 -0.258900
vn -1.000000 0.004800 0.000000
vn -0.965900 0.004600 0.258700
vn -0.965900 0.004600 0.258900
vn -0.865300 -0.018000 0.500900
vn -0.866500 -0.016600 0.499000
vn -0.731700 -0.106700 0.673200
vn -0.670200 -0.188000 0.718000
vn -0.492100 -0.231700 0.839100
vn -0.480900 -0.239200 0.843500
vn -0.253600 -0.250200 0.934400
vn -0.248300 -0.252000 0.935400
vn 0.000000 1.000000 0.000000
vn 0.000000 -1.000000 0.000000
usemtl 29546d
s 1
f 65/77/41 89/78/41 90/79/42 66/80/43
f 66/80/43 90/79/42 91/81/44 67/82/45
f 67/82/45 91/81/44 92/83/46 68/84/47
f 68/84/47 92/83/46 93/85/48 69/86/49
f 69/86/49 93/85/48 94/87/50 70/88/50
f 70/88/50 94/87/50 95/89/51 71/90/51
f 71/90/51 95/89/51 96/91/52 72/92/52
f 72/92/52 96/91/52 97/93/53 73/94/54
f 73/94/54 97/93/53 98/95/55 74/96/56
f 74/96/56 98/95/55 99/97/57 75/98/58
f 75/98/58 99/97/57 100/99/59 76/100/60
f 76/100/60 100/99/59 101/101/61 77/102/61
f 77/102/61 101/101/61 102/103/62 78/104/63
f 78/104/63 102/103/62 103/105/64 79/106/65
f 79/106/65 103/105/64 104/107/66 80/108/67
f 80/108/67 104/107/66 105/109/68 81/110/69
f 81/110/69 105/109/68 106/111/70 82/112/71
f 82/112/71 106/111/70 107/113/72 83/114/72
f 83/114/72 107/113/72 108/115/73 84/116/74
f 84/116/74 108/115/73 109/117/75 85/118/76
f 85/118/76 109/117/75 110/119/77 86/120/78
f 86/120/78 110/119/77 111/121/79 87/122/80
f 87/122/80 111/121/79 112/123/81 88/124/82
f 88/124/82 112/123/81 89/125/41 65/126/41
f 65/78/83 66/79/83 113/77/83
f 66/79/83 67/81/83 113/77/83
f 67/81/83 68/83/83 113/77/83
f 68/83/83 69/85/83 113/77/83
f 69/85/83 70/87/83 113/77/83
f 70/87/83 71/89/83 113/77/83
f 71/89/83 72/91/83 113/77/83
f 72/91/83 73/93/83 113/77/83
f 73/93/83 74/95/83 113/77/83
f 74/95/83 75/97/83 113/77/83
f 75/97/83 76/99/83 113/77/83
f 76/99/83 77/101/83 113/77/83
f 77/101/83 78/103/83 113/77/83
f 78/103/83 79/105/83 113/77/83
f 79/105/83 80/107/83 113/77/83
f 80/107/83 81/109/83 113/77/83
f 81/109/83 82/111/83 113/77/83
f 82/111/83 83/113/83 113/77/83
f 83/113/83 84/115/83 113/77/83
f 84/115/83 85/117/83 113/77/83
f 85/117/83 86/119/83 113/77/83
f 86/119/83 87/121/83 113/77/83
f 87/121/83 88/123/83 113/77/83
f 88/123/83 65/125/83 113/77/83
f 90/80/84 89/77/84 114/78/84
f 91/82/84 90/80/84 114/78/84
f 92/84/84 91/82/84 114/78/84
f 93/86/84 92/84/84 114/78/84
f 94/88/84 93/86/84 114/78/84
f 95/90/84 94/88/84 114/78/84
f 96/92/84 95/90/84 114/78/84
f 97/94/84 96/92/84 114/78/84
f 98/96/84 97/94/84 114/78/84
f 99/98/84 98/96/84 114/78/84
f 100/100/84 99/98/84 114/78/84
f 101/102/84 100/100/84 114/78/84
f 102/104/84 101/102/84 114/78/84
f 103/106/84 102/104/84 114/78/84
f 104/108/84 103/106/84 114/78/84
f 105/110/84 104/108/84 114/78/84
f 106/112/84 105/110/84 114/78/84
f 107/114/84 106/112/84 114/78/84
f 108/116/84 107/114/84 114/78/84
f 109/118/84 108/116/84 114/78/84
f 110/120/84 109/118/84 114/78/84
f 111/122/84 110/120/84 114/78/84
f 112/124/84 111/122/84 114/78/84
f 89/126/84 112/124/84 114/78/84
